<svg t="1674143175049" class="icon" viewBox="0 0 1024 1024" version="1.1" xmlns="http://www.w3.org/2000/svg" p-id="4902" width="534" height="534"><path d="M821.288421 82.472421H202.738526c-42.698105 0-77.318737 34.627368-77.318737 77.318737v704.444631c0 42.698105 34.627368 77.318737 77.318737 77.318737h618.536421c42.698105 0 77.318737-34.627368 77.318737-77.318737V159.797895c0-42.698105-34.627368-77.318737-77.318737-77.318737z m-502.568421 730.21979V640.875789l96.646737 85.908211z m300.678737 0v-256.538948c-0.417684-20.055579-10.071579-44.139789-53.692632-44.139789-87.349895 0-185.330526 43.930947-186.300631 44.368842L318.72 583.882105V211.334737h85.908211v243.880421c42.886737-13.958737 102.844632-29.109895 161.077894-29.109895 53.099789 0 84.884211 20.877474 102.197895 38.393263 36.951579 37.369263 37.456842 84.971789 37.402947 90.469053v257.724632z m21.477052-461.756632H554.967579c33.765053-44.294737 54.959158-90.913684 64.431158-139.600842h85.90821c-5.793684 48.794947-25.579789 95.575579-64.431158 139.600842z" fill="#6963B9" p-id="4903"></path></svg>